<mxfile host="app.diagrams.net" modified="2023-05-26T16:40:32.450Z" agent="Mozilla/5.0 (Macintosh; Intel Mac OS X 10_15_7) AppleWebKit/537.36 (KHTML, like Gecko) Chrome/113.0.0.0 Safari/537.36" etag="93uDRcgZnjZdcfIixGHQ" version="21.2.9" type="github">
  <diagram id="kgpKYQtTHZ0yAKxKKP6v" name="Page-1">
    <mxGraphModel dx="2044" dy="711" grid="1" gridSize="10" guides="1" tooltips="1" connect="1" arrows="1" fold="1" page="1" pageScale="1" pageWidth="850" pageHeight="1100" math="0" shadow="0">
      <root>
        <mxCell id="0" />
        <mxCell id="1" parent="0" />
        <mxCell id="3nuBFxr9cyL0pnOWT2aG-1" value="SUBS APP STATUSES" style="shape=table;childLayout=tableLayout;startSize=30;collapsible=0;recursiveResize=0;expand=0;fillColor=none;fontStyle=1" parent="1" vertex="1">
          <mxGeometry x="-840" y="111" width="650" height="550" as="geometry" />
        </mxCell>
        <mxCell id="3nuBFxr9cyL0pnOWT2aG-3" value="" style="shape=tableRow;horizontal=0;swimlaneHead=0;swimlaneBody=0;top=0;left=0;bottom=0;right=0;fillColor=none;points=[[0,0.5],[1,0.5]];portConstraint=eastwest;startSize=10;collapsible=0;recursiveResize=0;expand=0;fontStyle=1;" parent="3nuBFxr9cyL0pnOWT2aG-1" vertex="1">
          <mxGeometry y="30" width="650" height="520" as="geometry" />
        </mxCell>
        <mxCell id="3nuBFxr9cyL0pnOWT2aG-4" value="CRA/CRE" style="swimlane;swimlaneHead=0;swimlaneBody=0;connectable=0;fillColor=none;startSize=30;collapsible=0;recursiveResize=0;expand=0;fontStyle=1;" parent="3nuBFxr9cyL0pnOWT2aG-3" vertex="1">
          <mxGeometry x="10" width="181" height="520" as="geometry">
            <mxRectangle width="181" height="520" as="alternateBounds" />
          </mxGeometry>
        </mxCell>
        <mxCell id="3nuBFxr9cyL0pnOWT2aG-5" style="edgeStyle=orthogonalEdgeStyle;rounded=0;orthogonalLoop=1;jettySize=auto;html=1;exitX=0.5;exitY=1;exitDx=0;exitDy=0;entryX=0.5;entryY=0;entryDx=0;entryDy=0;" parent="3nuBFxr9cyL0pnOWT2aG-4" source="L_UCrQZRqcuQ8gQmLaEm-171" target="L_UCrQZRqcuQ8gQmLaEm-172" edge="1">
          <mxGeometry relative="1" as="geometry">
            <mxPoint x="65" y="100" as="sourcePoint" />
            <mxPoint x="65" y="130" as="targetPoint" />
            <Array as="points" />
          </mxGeometry>
        </mxCell>
        <mxCell id="L_UCrQZRqcuQ8gQmLaEm-30" style="edgeStyle=orthogonalEdgeStyle;rounded=0;orthogonalLoop=1;jettySize=auto;html=1;exitX=0.5;exitY=1;exitDx=0;exitDy=0;" edge="1" parent="3nuBFxr9cyL0pnOWT2aG-4">
          <mxGeometry relative="1" as="geometry">
            <mxPoint x="65" y="270" as="sourcePoint" />
            <mxPoint x="65" y="270" as="targetPoint" />
          </mxGeometry>
        </mxCell>
        <mxCell id="L_UCrQZRqcuQ8gQmLaEm-171" value="Fill Customer Information" style="rounded=1;whiteSpace=wrap;html=1;" vertex="1" parent="3nuBFxr9cyL0pnOWT2aG-4">
          <mxGeometry x="10.5" y="40" width="109" height="50" as="geometry" />
        </mxCell>
        <mxCell id="L_UCrQZRqcuQ8gQmLaEm-175" style="edgeStyle=orthogonalEdgeStyle;rounded=0;orthogonalLoop=1;jettySize=auto;html=1;exitX=0.5;exitY=1;exitDx=0;exitDy=0;" edge="1" parent="3nuBFxr9cyL0pnOWT2aG-4" source="L_UCrQZRqcuQ8gQmLaEm-172" target="L_UCrQZRqcuQ8gQmLaEm-173">
          <mxGeometry relative="1" as="geometry" />
        </mxCell>
        <mxCell id="L_UCrQZRqcuQ8gQmLaEm-172" value="&lt;font color=&quot;#ffffff&quot;&gt;&lt;b&gt;Application Fee Generated&lt;/b&gt;&lt;/font&gt;" style="rounded=1;whiteSpace=wrap;html=1;arcSize=50;fillColor=#0000CC;strokeColor=#6c8ebf;fillStyle=solid;" vertex="1" parent="3nuBFxr9cyL0pnOWT2aG-4">
          <mxGeometry x="15" y="140" width="100" height="40" as="geometry" />
        </mxCell>
        <mxCell id="L_UCrQZRqcuQ8gQmLaEm-177" style="edgeStyle=orthogonalEdgeStyle;rounded=0;orthogonalLoop=1;jettySize=auto;html=1;exitX=0.5;exitY=1;exitDx=0;exitDy=0;entryX=0.5;entryY=0;entryDx=0;entryDy=0;" edge="1" parent="3nuBFxr9cyL0pnOWT2aG-4">
          <mxGeometry relative="1" as="geometry">
            <mxPoint x="64.5" y="276" as="sourcePoint" />
            <mxPoint x="60.5" y="325" as="targetPoint" />
            <Array as="points">
              <mxPoint x="65" y="277" />
              <mxPoint x="61" y="277" />
              <mxPoint x="61" y="301" />
            </Array>
          </mxGeometry>
        </mxCell>
        <mxCell id="L_UCrQZRqcuQ8gQmLaEm-173" value="Application Fee Paid" style="rounded=1;whiteSpace=wrap;html=1;" vertex="1" parent="3nuBFxr9cyL0pnOWT2aG-4">
          <mxGeometry x="5.5" y="216" width="120" height="60" as="geometry" />
        </mxCell>
        <mxCell id="L_UCrQZRqcuQ8gQmLaEm-176" value="&lt;font color=&quot;#ffffff&quot;&gt;&lt;b&gt;Inspection Initiated&lt;/b&gt;&lt;/font&gt;" style="rounded=1;whiteSpace=wrap;html=1;arcSize=50;fillColor=#0000CC;strokeColor=#6c8ebf;fillStyle=solid;" vertex="1" parent="3nuBFxr9cyL0pnOWT2aG-4">
          <mxGeometry x="11.5" y="325" width="100" height="40" as="geometry" />
        </mxCell>
        <mxCell id="3nuBFxr9cyL0pnOWT2aG-8" value="DTO" style="swimlane;swimlaneHead=0;swimlaneBody=0;connectable=0;fillColor=none;startSize=30;collapsible=0;recursiveResize=0;expand=0;fontStyle=1;" parent="3nuBFxr9cyL0pnOWT2aG-3" vertex="1">
          <mxGeometry x="191" width="227" height="520" as="geometry">
            <mxRectangle width="227" height="520" as="alternateBounds" />
          </mxGeometry>
        </mxCell>
        <mxCell id="L_UCrQZRqcuQ8gQmLaEm-64" style="edgeStyle=orthogonalEdgeStyle;rounded=1;orthogonalLoop=1;jettySize=auto;html=1;exitX=0.5;exitY=1;exitDx=0;exitDy=0;entryX=0.5;entryY=0;entryDx=0;entryDy=0;fillColor=#d5e8d4;strokeColor=#82b366;" edge="1" parent="3nuBFxr9cyL0pnOWT2aG-8" source="L_UCrQZRqcuQ8gQmLaEm-39" target="L_UCrQZRqcuQ8gQmLaEm-40">
          <mxGeometry relative="1" as="geometry" />
        </mxCell>
        <mxCell id="L_UCrQZRqcuQ8gQmLaEm-39" value="Inspection Assigned --&amp;gt; Resolved --&amp;gt; Approved --&amp;gt;" style="rounded=1;whiteSpace=wrap;html=1;" vertex="1" parent="3nuBFxr9cyL0pnOWT2aG-8">
          <mxGeometry x="19" y="60" width="181" height="60" as="geometry" />
        </mxCell>
        <mxCell id="L_UCrQZRqcuQ8gQmLaEm-40" value="&lt;font color=&quot;#ffffff&quot;&gt;&lt;b&gt;Contract Generated&lt;/b&gt;&lt;/font&gt;" style="rounded=1;whiteSpace=wrap;html=1;arcSize=50;fillColor=#0000CC;" vertex="1" parent="3nuBFxr9cyL0pnOWT2aG-8">
          <mxGeometry x="69" y="205" width="100" height="40" as="geometry" />
        </mxCell>
        <mxCell id="3nuBFxr9cyL0pnOWT2aG-11" value="CRA/CRE" style="swimlane;swimlaneHead=0;swimlaneBody=0;connectable=0;fillColor=none;startSize=30;collapsible=0;recursiveResize=0;expand=0;fontStyle=1;" parent="3nuBFxr9cyL0pnOWT2aG-3" vertex="1">
          <mxGeometry x="418" width="232" height="520" as="geometry">
            <mxRectangle width="232" height="520" as="alternateBounds" />
          </mxGeometry>
        </mxCell>
        <mxCell id="L_UCrQZRqcuQ8gQmLaEm-180" style="edgeStyle=orthogonalEdgeStyle;rounded=1;orthogonalLoop=1;jettySize=auto;html=1;exitX=0.5;exitY=1;exitDx=0;exitDy=0;entryX=0.5;entryY=0;entryDx=0;entryDy=0;fillColor=#d5e8d4;strokeColor=#82b366;" edge="1" parent="3nuBFxr9cyL0pnOWT2aG-11" source="L_UCrQZRqcuQ8gQmLaEm-41" target="L_UCrQZRqcuQ8gQmLaEm-63">
          <mxGeometry relative="1" as="geometry" />
        </mxCell>
        <mxCell id="L_UCrQZRqcuQ8gQmLaEm-41" value="customer Signs Contract&amp;nbsp; with Authorization code&amp;nbsp;" style="rounded=1;whiteSpace=wrap;html=1;" vertex="1" parent="3nuBFxr9cyL0pnOWT2aG-11">
          <mxGeometry x="32" y="58" width="168" height="62" as="geometry" />
        </mxCell>
        <mxCell id="L_UCrQZRqcuQ8gQmLaEm-181" style="edgeStyle=orthogonalEdgeStyle;rounded=1;orthogonalLoop=1;jettySize=auto;html=1;exitX=0.5;exitY=1;exitDx=0;exitDy=0;entryX=0.5;entryY=0;entryDx=0;entryDy=0;fillColor=#d5e8d4;strokeColor=#82b366;" edge="1" parent="3nuBFxr9cyL0pnOWT2aG-11" source="L_UCrQZRqcuQ8gQmLaEm-63" target="L_UCrQZRqcuQ8gQmLaEm-65">
          <mxGeometry relative="1" as="geometry" />
        </mxCell>
        <mxCell id="L_UCrQZRqcuQ8gQmLaEm-63" value="&lt;font color=&quot;#ffffff&quot;&gt;&lt;b&gt;Connection Fee Generated&lt;/b&gt;&lt;/font&gt;" style="rounded=1;whiteSpace=wrap;html=1;arcSize=50;fillColor=#0000CC;" vertex="1" parent="3nuBFxr9cyL0pnOWT2aG-11">
          <mxGeometry x="65" y="160" width="100" height="40" as="geometry" />
        </mxCell>
        <mxCell id="L_UCrQZRqcuQ8gQmLaEm-182" style="edgeStyle=orthogonalEdgeStyle;rounded=1;orthogonalLoop=1;jettySize=auto;html=1;exitX=0.5;exitY=1;exitDx=0;exitDy=0;entryX=0.5;entryY=0;entryDx=0;entryDy=0;fillColor=#d5e8d4;strokeColor=#82b366;" edge="1" parent="3nuBFxr9cyL0pnOWT2aG-11" source="L_UCrQZRqcuQ8gQmLaEm-65" target="L_UCrQZRqcuQ8gQmLaEm-66">
          <mxGeometry relative="1" as="geometry" />
        </mxCell>
        <mxCell id="L_UCrQZRqcuQ8gQmLaEm-65" value="Customer Pays Connection Fee" style="rounded=1;whiteSpace=wrap;html=1;" vertex="1" parent="3nuBFxr9cyL0pnOWT2aG-11">
          <mxGeometry x="26" y="233" width="164" height="60" as="geometry" />
        </mxCell>
        <mxCell id="L_UCrQZRqcuQ8gQmLaEm-66" value="&lt;font color=&quot;#ffffff&quot;&gt;&lt;b&gt;Installation Initiated&lt;/b&gt;&lt;/font&gt;" style="rounded=1;whiteSpace=wrap;html=1;arcSize=50;fillColor=#0000CC;glass=0;" vertex="1" parent="3nuBFxr9cyL0pnOWT2aG-11">
          <mxGeometry x="58" y="340" width="100" height="40" as="geometry" />
        </mxCell>
        <mxCell id="L_UCrQZRqcuQ8gQmLaEm-179" style="edgeStyle=orthogonalEdgeStyle;rounded=1;orthogonalLoop=1;jettySize=auto;html=1;exitX=1;exitY=0.5;exitDx=0;exitDy=0;entryX=0;entryY=0.375;entryDx=0;entryDy=0;entryPerimeter=0;fillColor=#d5e8d4;strokeColor=#82b366;" edge="1" parent="3nuBFxr9cyL0pnOWT2aG-3" source="L_UCrQZRqcuQ8gQmLaEm-40" target="L_UCrQZRqcuQ8gQmLaEm-41">
          <mxGeometry relative="1" as="geometry">
            <Array as="points">
              <mxPoint x="440" y="225" />
              <mxPoint x="440" y="81" />
            </Array>
          </mxGeometry>
        </mxCell>
        <mxCell id="L_UCrQZRqcuQ8gQmLaEm-189" style="edgeStyle=orthogonalEdgeStyle;rounded=1;orthogonalLoop=1;jettySize=auto;html=1;exitX=1;exitY=0.5;exitDx=0;exitDy=0;entryX=0;entryY=0.5;entryDx=0;entryDy=0;fillColor=#d5e8d4;strokeColor=#82b366;" edge="1" parent="3nuBFxr9cyL0pnOWT2aG-3" source="L_UCrQZRqcuQ8gQmLaEm-176" target="L_UCrQZRqcuQ8gQmLaEm-39">
          <mxGeometry relative="1" as="geometry" />
        </mxCell>
        <mxCell id="L_UCrQZRqcuQ8gQmLaEm-126" value="" style="shape=waypoint;sketch=0;size=6;pointerEvents=1;points=[];fillColor=none;resizable=0;rotatable=0;perimeter=centerPerimeter;snapToPoint=1;startSize=40;fontStyle=1;" vertex="1" parent="1">
          <mxGeometry x="1185" y="355" width="20" height="20" as="geometry" />
        </mxCell>
        <mxCell id="L_UCrQZRqcuQ8gQmLaEm-162" value="DTO" style="swimlane;swimlaneHead=0;swimlaneBody=0;connectable=0;fillColor=none;startSize=30;collapsible=0;recursiveResize=0;expand=0;fontStyle=1;" vertex="1" parent="1">
          <mxGeometry x="-190" y="141" width="190" height="510" as="geometry">
            <mxRectangle width="300" height="510" as="alternateBounds" />
          </mxGeometry>
        </mxCell>
        <mxCell id="L_UCrQZRqcuQ8gQmLaEm-184" style="edgeStyle=orthogonalEdgeStyle;rounded=1;orthogonalLoop=1;jettySize=auto;html=1;exitX=0.5;exitY=1;exitDx=0;exitDy=0;entryX=0.5;entryY=0;entryDx=0;entryDy=0;fillColor=#d5e8d4;strokeColor=#82b366;" edge="1" parent="L_UCrQZRqcuQ8gQmLaEm-162" source="L_UCrQZRqcuQ8gQmLaEm-163" target="L_UCrQZRqcuQ8gQmLaEm-164">
          <mxGeometry relative="1" as="geometry" />
        </mxCell>
        <mxCell id="L_UCrQZRqcuQ8gQmLaEm-163" value="Installation Assigned --&amp;gt; Resolved -&amp;gt; Approved --&amp;gt;" style="rounded=1;whiteSpace=wrap;html=1;" vertex="1" parent="L_UCrQZRqcuQ8gQmLaEm-162">
          <mxGeometry x="21" y="72" width="144" height="49" as="geometry" />
        </mxCell>
        <mxCell id="L_UCrQZRqcuQ8gQmLaEm-164" value="&lt;b&gt;&lt;font color=&quot;#ffffff&quot;&gt;COMPLETED&lt;/font&gt;&lt;/b&gt;" style="rounded=1;whiteSpace=wrap;html=1;arcSize=50;fillColor=#0000CC;" vertex="1" parent="L_UCrQZRqcuQ8gQmLaEm-162">
          <mxGeometry x="32" y="184" width="100" height="40" as="geometry" />
        </mxCell>
        <mxCell id="L_UCrQZRqcuQ8gQmLaEm-169" value="" style="endArrow=none;html=1;rounded=0;" edge="1" parent="L_UCrQZRqcuQ8gQmLaEm-162">
          <mxGeometry width="50" height="50" relative="1" as="geometry">
            <mxPoint x="189" y="520" as="sourcePoint" />
            <mxPoint x="189" as="targetPoint" />
          </mxGeometry>
        </mxCell>
        <mxCell id="L_UCrQZRqcuQ8gQmLaEm-167" value="" style="endArrow=none;html=1;rounded=0;" edge="1" parent="1">
          <mxGeometry width="50" height="50" relative="1" as="geometry">
            <mxPoint x="-191" y="141" as="sourcePoint" />
            <mxPoint y="140" as="targetPoint" />
            <Array as="points">
              <mxPoint x="-191" y="141" />
            </Array>
          </mxGeometry>
        </mxCell>
        <mxCell id="L_UCrQZRqcuQ8gQmLaEm-170" value="" style="endArrow=none;html=1;rounded=0;" edge="1" parent="1">
          <mxGeometry width="50" height="50" relative="1" as="geometry">
            <mxPoint y="660" as="sourcePoint" />
            <mxPoint x="-190" y="661" as="targetPoint" />
            <Array as="points">
              <mxPoint x="-109" y="661" />
            </Array>
          </mxGeometry>
        </mxCell>
        <mxCell id="L_UCrQZRqcuQ8gQmLaEm-183" style="edgeStyle=orthogonalEdgeStyle;rounded=1;orthogonalLoop=1;jettySize=auto;html=1;exitX=1;exitY=0.5;exitDx=0;exitDy=0;entryX=0;entryY=0.75;entryDx=0;entryDy=0;fillColor=#d5e8d4;strokeColor=#82b366;" edge="1" parent="1" source="L_UCrQZRqcuQ8gQmLaEm-66" target="L_UCrQZRqcuQ8gQmLaEm-163">
          <mxGeometry relative="1" as="geometry">
            <Array as="points">
              <mxPoint x="-210" y="501" />
              <mxPoint x="-210" y="250" />
            </Array>
          </mxGeometry>
        </mxCell>
        <mxCell id="L_UCrQZRqcuQ8gQmLaEm-185" value="&lt;font color=&quot;#ffffff&quot;&gt;&lt;b&gt;STAATUS&lt;/b&gt;&lt;/font&gt;" style="rounded=1;whiteSpace=wrap;html=1;arcSize=50;fillColor=#0000CC;" vertex="1" parent="1">
          <mxGeometry x="-810" y="40" width="100" height="40" as="geometry" />
        </mxCell>
        <mxCell id="L_UCrQZRqcuQ8gQmLaEm-186" value="ACTION" style="rounded=1;whiteSpace=wrap;html=1;" vertex="1" parent="1">
          <mxGeometry x="-670" y="40" width="140" height="40" as="geometry" />
        </mxCell>
        <mxCell id="L_UCrQZRqcuQ8gQmLaEm-187" value="&lt;b&gt;key&lt;/b&gt;" style="text;html=1;align=center;verticalAlign=middle;resizable=0;points=[];autosize=1;strokeColor=none;fillColor=none;" vertex="1" parent="1">
          <mxGeometry x="-810" y="10" width="40" height="30" as="geometry" />
        </mxCell>
      </root>
    </mxGraphModel>
  </diagram>
</mxfile>
